.
..............................Site Info...........................

 -   http://www.scenetime.com  *_*   

SceneTime is going to Close sign up on march/1, hurry up! get in before the doors are closed.

     We care to share . Join us on  http://www.scenetime.com 

    Be the first to get new release at  http://www.scenetime.com

        Seed back for speed


...................................NFO:.................................................[img]http://lookpic.com/O/i2/1986/Pemzr3am.jpeg[/img]

General

Complete name                            : Happy.Feet.Two.2011.DVDrip-4EVER
Format                                   : Matroska
Format version                           : Version 2
File size                                : 1.43 GiB
Duration                                 : 1h 39mn
Overall bit rate                         : 2 062 Kbps
Writing application                      : Lavf51.12.1
Writing library                          : Lavf51.12.1
iMDB                                     : http://www.imdb.com/title/tt1402488/

Video

ID                                       : 1
Format                                   : AVC
Format/Info                              : Advanced Video Codec
Format profile                           : Baseline@L2.0
Codec ID                                 : V_MPEG4/ISO/AVC
Duration                                 : 1h 39mn
Bit rate                                 : 1 573 Kbps
Width                                    : 592 pixels
Height                                   : 256 pixels
Display aspect ratio                     : 2.35:1
Frame rate                               : 23.976 fps
Color space                              : YUV
Chroma subsampling                       : 4:2:0
Bit depth                                : 8 bits
Scan type                                : Progressive
Bits/(Pixel*Frame)                       : 0.433
Stream size                              : 1.09 GiB (76%)
Default                                  : Yes
Forced                                   : No

Audio

ID                                       : 2
Format                                   : AC-3
Format/Info                              : Audio Coding 3
Mode extension                           : CM (complete main)
Codec ID                                 : A_AC3
Duration                                 : 1h 39mn
Bit rate mode                            : Constant
Bit rate                                 : 448 Kbps
Channel(s)                               : 6 channels
Channel positions                        : Front: L C R, Side: L R, LFE
Sampling rate                            : 48.0 KHz
Bit depth                                : 16 bits
Compression mode                         : Lossy
Stream size                              : 319 MiB (22%)
Default                                  : Yes
Forced                                   : No

[img]http://lookpic.com/O/i2/159/3PWxWpUo.jpeg[/img]